<svg version="1.1" id="Layer_1" xmlns="http://www.w3.org/2000/svg" xmlns:xlink="http://www.w3.org/1999/xlink" x="0px" y="0px"
	 width="100%" viewBox="0 0 500 500" enable-background="new 0 0 500 500" xml:space="preserve">
<path fill="#A10035" opacity="1.000000" stroke="none" 
	d="
M243.000000,501.000000 
	C162.000015,501.000000 81.500038,501.000000 1.000043,501.000000 
	C1.000029,334.333405 1.000029,167.666779 1.000014,1.000133 
	C167.666565,1.000088 334.333130,1.000088 500.999756,1.000044 
	C500.999847,167.666519 500.999847,334.333038 500.999939,500.999786 
	C415.166656,501.000000 329.333344,501.000000 243.000000,501.000000 
M186.074677,331.176666 
	C186.074677,331.176666 186.296890,331.185272 186.296890,331.185272 
	C186.296890,331.185272 186.015060,330.988922 185.899490,330.484467 
	C184.980057,330.266541 184.060623,330.048615 182.919556,329.200226 
	C181.595657,328.473633 180.271774,327.747040 178.252090,327.016357 
	C177.586746,326.667328 176.921402,326.318268 175.672699,325.663208 
	C183.515076,322.672180 190.642914,319.785370 197.915573,317.326965 
	C199.312210,316.854889 201.277954,318.066345 202.810959,318.457703 
	C202.810959,315.955505 202.810959,312.700287 202.810959,310.060577 
	C191.529236,314.596008 180.187241,319.155701 167.816620,324.128906 
	C172.263992,326.066803 175.606339,327.523224 179.624008,329.128479 
	C180.728409,329.453949 181.832809,329.779449 183.436432,330.530487 
	C184.287094,330.692291 185.137756,330.854065 186.074677,331.176666 
M183.854904,348.391998 
	C181.723969,344.953796 178.688202,343.100616 174.669037,344.157715 
	C170.835739,345.165894 169.235580,348.154877 169.021286,352.935028 
	C169.021286,357.390350 169.021286,361.845673 169.021286,365.408905 
	C171.225037,364.718292 173.420258,363.487762 175.646729,363.428375 
	C184.360916,363.195923 193.084961,363.333405 201.973892,363.333405 
	C201.973892,361.666840 201.973892,359.862762 202.299255,357.385803 
	C202.430145,355.854736 202.561035,354.323669 202.691925,352.792603 
	C202.201340,352.776978 201.710754,352.761322 201.220169,352.745697 
	C201.131851,354.450531 201.043518,356.155334 200.308487,358.386230 
	C195.548248,358.464844 190.787994,358.543457 186.044952,357.811340 
	C186.366074,354.907501 186.687195,352.003662 187.618515,348.602692 
	C193.051407,345.063202 196.233963,345.493164 201.782440,350.516174 
	C202.213486,344.212799 197.184875,339.537598 191.669006,341.908783 
	C188.893723,343.101807 187.102066,346.582947 184.561813,348.977234 
	C184.561813,348.977234 184.253571,348.980469 183.854904,348.391998 
M188.612320,182.301239 
	C182.669098,179.381927 176.725876,176.462616 170.470352,173.389908 
	C170.292480,174.889938 170.180313,175.835724 170.068161,176.781525 
	C170.379929,176.359085 170.691711,175.936646 171.003479,175.514206 
	C176.564651,178.404617 182.125824,181.295044 187.087921,184.634827 
	C183.251526,186.623611 179.515152,188.855484 175.534439,190.493561 
	C173.681747,191.255936 171.354904,190.866119 169.255493,190.997803 
	C169.255493,193.036453 169.255493,196.251572 169.255493,199.141113 
	C176.154190,195.376404 182.854248,191.455994 189.797195,188.027435 
	C194.164719,185.870651 200.159164,187.338379 202.861328,190.630051 
	C202.861328,186.869507 202.861328,183.255478 202.861328,180.597214 
	C200.646027,181.320129 198.378189,182.355408 196.003860,182.750061 
	C193.735214,183.127151 191.355743,182.837555 188.612320,182.301239 
M192.453766,283.345490 
	C186.473755,287.232880 180.680405,291.457886 174.454300,294.900116 
	C169.530533,297.622253 167.709656,301.030426 169.377121,306.339722 
	C171.631241,302.862823 191.337097,301.323425 201.844849,303.814758 
	C201.844849,302.858978 201.844849,301.912903 201.844849,301.426819 
	C192.395721,301.426819 183.113983,301.426819 173.019760,301.426819 
	C183.452667,294.649139 193.308594,288.246307 203.164520,281.843475 
	C203.024857,281.461823 202.885208,281.080170 202.745544,280.698517 
	C200.170364,280.698517 197.595169,280.698517 194.285660,280.333435 
	C186.838623,280.199829 179.391586,280.012604 171.944580,280.014252 
	C171.187195,280.014435 170.430084,281.150665 169.654175,281.774719 
	C177.933182,282.220917 185.501175,282.628784 192.453766,283.345490 
M309.600067,342.094971 
	C311.447510,340.674286 313.385986,339.356537 315.128387,337.817017 
	C333.470734,321.610474 341.049561,301.341064 336.441040,277.296783 
	C331.942657,253.827393 315.870178,240.748062 294.036743,234.158264 
	C284.864502,231.389923 275.250916,230.083832 266.012634,228.149582 
	C267.296448,227.809372 268.876953,227.422913 270.438660,226.971512 
	C281.730469,223.707535 292.309418,219.267166 300.946899,210.806274 
	C317.424286,194.665817 320.238800,159.000275 289.241028,146.237686 
	C277.030579,141.210342 264.178345,139.367676 251.163605,139.198364 
	C225.004486,138.858032 198.838623,139.030777 172.675537,139.011490 
	C171.897720,139.010910 171.119736,139.230255 169.107651,139.532379 
	C170.493790,141.437973 171.140457,143.238617 172.383636,143.876282 
	C177.433655,146.466507 180.034836,150.666718 181.041580,155.987503 
	C181.840637,160.210556 182.362930,164.485977 183.007843,168.736481 
	C191.651306,168.736481 200.089645,168.736481 208.979950,168.736481 
	C208.979950,160.431854 208.979950,152.350204 208.979950,144.341568 
	C222.865875,142.544266 245.074234,143.867661 255.451172,147.024719 
	C275.099640,153.002533 285.814697,169.875824 283.923279,191.860596 
	C282.314087,210.565063 268.403900,225.019302 248.915802,227.004791 
	C239.559433,227.958008 230.025574,227.169006 220.147491,227.169006 
	C220.306137,229.814407 220.387665,231.173828 220.456085,232.314743 
	C232.838501,232.869446 244.860641,232.758759 256.718231,234.101364 
	C271.989410,235.830460 285.655792,241.564667 295.736389,253.955566 
	C304.049072,264.173370 307.562836,276.167145 308.570374,289.000366 
	C311.213898,322.671143 296.163544,348.436462 258.835297,353.969116 
	C246.244705,355.835236 233.381805,355.864258 220.376587,356.751068 
	C220.376587,357.522095 220.376587,358.942047 220.376587,359.957001 
	C231.347397,359.957001 242.173019,360.561951 252.906738,359.826172 
	C272.878387,358.457123 291.984863,353.693726 309.600067,342.094971 
M168.992081,267.398438 
	C168.992081,269.055328 168.992081,270.712189 168.992081,272.586731 
	C171.741547,268.793213 189.156708,267.354797 201.800659,269.731232 
	C201.800659,267.801605 201.800659,265.913269 201.800659,264.018921 
	C196.456482,264.018921 191.332291,264.018921 185.934143,264.018921 
	C188.941895,258.581360 199.501083,252.123093 202.796844,253.427567 
	C202.796844,250.318558 202.796844,247.232986 202.796844,244.787170 
	C196.165680,249.571808 189.358856,254.483185 182.532730,259.408478 
	C182.945435,260.233429 183.792130,261.925842 185.408142,265.156036 
	C179.098175,263.248535 173.408661,267.186127 168.992020,261.278137 
	C168.992020,263.227173 168.992020,264.879303 168.992081,267.398438 
M170.020538,211.554581 
	C168.973190,204.982712 173.039062,202.642792 178.424408,201.254700 
	C175.383163,201.254700 172.341919,201.254700 169.124313,201.254700 
	C169.124313,209.084885 169.124313,216.692047 169.114777,224.300461 
	C171.731628,220.856033 190.417038,219.401886 201.670746,221.802582 
	C201.670746,219.917648 201.670746,218.066818 201.670746,216.139130 
	C196.600952,216.139130 191.879379,216.139130 185.586578,216.139130 
	C187.509140,212.689636 188.897797,210.198090 190.042908,208.143494 
	C187.591995,208.143494 184.162521,208.143494 180.733047,208.143494 
	C185.072037,209.273651 186.616852,211.833618 185.459732,216.480255 
	C181.382690,216.480255 177.580658,216.475891 173.778610,216.481750 
	C171.065460,216.485931 169.820465,215.139420 170.020538,211.554581 
M189.465302,237.770920 
	C193.576538,237.770920 197.687759,237.770920 201.880295,237.770920 
	C201.880295,236.261139 201.880295,234.641037 201.880295,232.998718 
	C192.973190,232.998718 184.220535,233.141052 175.478561,232.898636 
	C173.292923,232.838028 171.141647,231.538666 169.073776,230.842072 
	C169.073776,233.522736 169.073776,237.157501 169.073776,239.898743 
	C170.988632,239.214066 172.967972,238.018265 175.022018,237.872101 
	C179.487732,237.554306 183.991562,237.772079 189.465302,237.770920 
M200.166733,334.079041 
	C198.922806,334.248291 197.678894,334.417542 195.972672,334.649658 
	C198.607742,336.460175 200.649338,337.862885 202.831757,339.362396 
	C202.831757,336.344177 202.831757,333.663788 202.831757,330.153229 
	C201.883469,331.828522 201.349548,332.771759 200.166733,334.079041 
M191.016281,325.366180 
	C190.930206,324.744141 190.844147,324.122070 190.626831,322.551544 
	C189.844604,326.500061 189.254913,329.476685 188.665222,332.453278 
	C189.255402,332.544617 189.845581,332.635956 190.435760,332.727295 
	C190.630554,330.521484 190.825348,328.315704 191.016281,325.366180 
M180.185471,257.718109 
	C180.537277,257.630585 180.889084,257.543091 181.240906,257.455597 
	C181.167374,257.323364 181.067642,257.069000 181.024460,257.078278 
	C180.693359,257.149323 180.373260,257.271637 180.185471,257.718109 
z"/>
<path fill="#FEFBFC" opacity="1.000000" stroke="none" 
	d="
M309.312531,342.312775 
	C291.984863,353.693726 272.878387,358.457123 252.906738,359.826172 
	C242.173019,360.561951 231.347397,359.957001 220.376587,359.957001 
	C220.376587,358.942047 220.376587,357.522095 220.376587,356.751068 
	C233.381805,355.864258 246.244705,355.835236 258.835297,353.969116 
	C296.163544,348.436462 311.213898,322.671143 308.570374,289.000366 
	C307.562836,276.167145 304.049072,264.173370 295.736389,253.955566 
	C285.655792,241.564667 271.989410,235.830460 256.718231,234.101364 
	C244.860641,232.758759 232.838501,232.869446 220.456085,232.314743 
	C220.387665,231.173828 220.306137,229.814407 220.147491,227.169006 
	C230.025574,227.169006 239.559433,227.958008 248.915802,227.004791 
	C268.403900,225.019302 282.314087,210.565063 283.923279,191.860596 
	C285.814697,169.875824 275.099640,153.002533 255.451172,147.024719 
	C245.074234,143.867661 222.865875,142.544266 208.979950,144.341568 
	C208.979950,152.350204 208.979950,160.431854 208.979950,168.736481 
	C200.089645,168.736481 191.651306,168.736481 183.007843,168.736481 
	C182.362930,164.485977 181.840637,160.210556 181.041580,155.987503 
	C180.034836,150.666718 177.433655,146.466507 172.383636,143.876282 
	C171.140457,143.238617 170.493790,141.437973 169.107651,139.532379 
	C171.119736,139.230255 171.897720,139.010910 172.675537,139.011490 
	C198.838623,139.030777 225.004486,138.858032 251.163605,139.198364 
	C264.178345,139.367676 277.030579,141.210342 289.241028,146.237686 
	C320.238800,159.000275 317.424286,194.665817 300.946899,210.806274 
	C292.309418,219.267166 281.730469,223.707535 270.438660,226.971512 
	C268.876953,227.422913 267.296448,227.809372 266.012634,228.149582 
	C275.250916,230.083832 284.864502,231.389923 294.036743,234.158264 
	C315.870178,240.748062 331.942657,253.827393 336.441040,277.296783 
	C341.049561,301.341064 333.470734,321.610474 315.128387,337.817017 
	C313.385986,339.356537 311.447510,340.674286 309.312531,342.312775 
z"/>
<path fill="#FBF4F6" opacity="1.000000" stroke="none" 
	d="
M168.992050,266.964935 
	C168.992020,264.879303 168.992020,263.227173 168.992020,261.278137 
	C173.408661,267.186127 179.098175,263.248535 185.408142,265.156036 
	C183.792130,261.925842 182.945435,260.233429 182.532730,259.408478 
	C189.358856,254.483185 196.165680,249.571808 202.796844,244.787170 
	C202.796844,247.232986 202.796844,250.318558 202.796844,253.427567 
	C199.501083,252.123093 188.941895,258.581360 185.934143,264.018921 
	C191.332291,264.018921 196.456482,264.018921 201.800659,264.018921 
	C201.800659,265.913269 201.800659,267.801605 201.800659,269.731232 
	C189.156708,267.354797 171.741547,268.793213 168.992081,272.586731 
	C168.992081,270.712189 168.992081,269.055328 168.992050,266.964935 
z"/>
<path fill="#FBF4F6" opacity="1.000000" stroke="none" 
	d="
M170.022354,211.997498 
	C169.820465,215.139420 171.065460,216.485931 173.778610,216.481750 
	C177.580658,216.475891 181.382690,216.480255 185.459732,216.480255 
	C186.616852,211.833618 185.072037,209.273651 180.733047,208.143494 
	C184.162521,208.143494 187.591995,208.143494 190.042908,208.143494 
	C188.897797,210.198090 187.509140,212.689636 185.586578,216.139130 
	C191.879379,216.139130 196.600952,216.139130 201.670746,216.139130 
	C201.670746,218.066818 201.670746,219.917648 201.670746,221.802582 
	C190.417038,219.401886 171.731628,220.856033 169.119537,224.299835 
	C169.124313,216.692047 169.124313,209.084885 169.124313,201.254700 
	C172.341919,201.254700 175.383163,201.254700 178.424408,201.254700 
	C173.039062,202.642792 168.973190,204.982712 170.022354,211.997498 
z"/>
<path fill="#FBF3F6" opacity="1.000000" stroke="none" 
	d="
M195.019989,280.698517 
	C197.595169,280.698517 200.170364,280.698517 202.745544,280.698517 
	C202.885208,281.080170 203.024857,281.461823 203.164520,281.843475 
	C193.308594,288.246307 183.452667,294.649139 173.019760,301.426819 
	C183.113983,301.426819 192.395721,301.426819 201.844849,301.426819 
	C201.844849,301.912903 201.844849,302.858978 201.844849,303.814758 
	C191.337097,301.323425 171.631241,302.862823 169.377121,306.339722 
	C167.709656,301.030426 169.530533,297.622253 174.454300,294.900116 
	C180.680405,291.457886 186.473755,287.232880 193.080414,283.124969 
	C194.144699,282.169128 194.582352,281.433838 195.019989,280.698517 
z"/>
<path fill="#FAF1F4" opacity="1.000000" stroke="none" 
	d="
M189.024994,182.841003 
	C191.355743,182.837555 193.735214,183.127151 196.003860,182.750061 
	C198.378189,182.355408 200.646027,181.320129 202.861328,180.597214 
	C202.861328,183.255478 202.861328,186.869507 202.861328,190.630051 
	C200.159164,187.338379 194.164719,185.870651 189.797195,188.027435 
	C182.854248,191.455994 176.154190,195.376404 169.255493,199.141113 
	C169.255493,196.251572 169.255493,193.036453 169.255493,190.997803 
	C171.354904,190.866119 173.681747,191.255936 175.534439,190.493561 
	C179.515152,188.855484 183.251526,186.623611 187.621979,184.329315 
	C188.445679,183.629547 188.735336,183.235275 189.024994,182.841003 
z"/>
<path fill="#F8EDF1" opacity="1.000000" stroke="none" 
	d="
M178.948700,328.979614 
	C175.606339,327.523224 172.263992,326.066803 167.816620,324.128906 
	C180.187241,319.155701 191.529236,314.596008 202.810959,310.060577 
	C202.810959,312.700287 202.810959,315.955505 202.810959,318.457703 
	C201.277954,318.066345 199.312210,316.854889 197.915573,317.326965 
	C190.642914,319.785370 183.515076,322.672180 175.672699,325.663208 
	C176.921402,326.318268 177.586746,326.667328 178.732147,327.336060 
	C179.124374,328.097076 179.036545,328.538330 178.948700,328.979614 
z"/>
<path fill="#F8EBEF" opacity="1.000000" stroke="none" 
	d="
M188.972565,237.770920 
	C183.991562,237.772079 179.487732,237.554306 175.022018,237.872101 
	C172.967972,238.018265 170.988632,239.214066 169.073776,239.898743 
	C169.073776,237.157501 169.073776,233.522736 169.073776,230.842072 
	C171.141647,231.538666 173.292923,232.838028 175.478561,232.898636 
	C184.220535,233.141052 192.973190,232.998718 201.880295,232.998718 
	C201.880295,234.641037 201.880295,236.261139 201.880295,237.770920 
	C197.687759,237.770920 193.576538,237.770920 188.972565,237.770920 
z"/>
<path fill="#FEFCFD" opacity="1.000000" stroke="none" 
	d="
M201.973892,358.058685 
	C201.973892,359.862762 201.973892,361.666840 201.973892,363.333405 
	C193.084961,363.333405 184.360916,363.195923 175.646729,363.428375 
	C173.420258,363.487762 171.225037,364.718292 169.021286,365.408905 
	C169.021286,361.845673 169.021286,357.390350 169.351013,352.494690 
	C169.847458,352.052521 170.014175,352.050690 170.153168,352.469757 
	C169.132126,357.500153 171.120468,359.268677 175.647125,358.886414 
	C178.412720,358.652802 181.202011,358.700012 184.318954,358.697815 
	C185.114075,358.723724 185.570923,358.672913 186.027756,358.622070 
	C190.787994,358.543457 195.548248,358.464844 200.892273,358.143311 
	C201.641983,357.953125 201.807938,358.005920 201.973892,358.058685 
z"/>
<path fill="#F8EDF1" opacity="1.000000" stroke="none" 
	d="
M184.865616,349.029419 
	C187.102066,346.582947 188.893723,343.101807 191.669006,341.908783 
	C197.184875,339.537598 202.213486,344.212799 201.782440,350.516174 
	C196.233963,345.493164 193.051407,345.063202 186.953918,348.835632 
	C185.814758,349.055542 185.340195,349.042480 184.865616,349.029419 
z"/>
<path fill="#F8EBEF" opacity="1.000000" stroke="none" 
	d="
M170.180893,352.048859 
	C170.014175,352.050690 169.847458,352.052521 169.431305,352.036194 
	C169.235580,348.154877 170.835739,345.165894 174.669037,344.157715 
	C178.688202,343.100616 181.723969,344.953796 184.040497,349.047119 
	C184.161453,350.177246 184.096802,350.652313 183.656418,351.016357 
	C178.164368,347.609283 174.165009,347.958374 170.180893,352.048859 
z"/>
<path fill="#DA9AAF" opacity="1.000000" stroke="none" 
	d="
M194.652832,280.515991 
	C194.582352,281.433838 194.144699,282.169128 193.388123,282.970581 
	C185.501175,282.628784 177.933182,282.220917 169.654175,281.774719 
	C170.430084,281.150665 171.187195,280.014435 171.944580,280.014252 
	C179.391586,280.012604 186.838623,280.199829 194.652832,280.515991 
z"/>
<path fill="#E1AEBE" opacity="1.000000" stroke="none" 
	d="
M188.818665,182.571121 
	C188.735336,183.235275 188.445679,183.629547 187.921509,184.104645 
	C182.125824,181.295044 176.564651,178.404617 171.003479,175.514206 
	C170.691711,175.936646 170.379929,176.359085 170.068161,176.781525 
	C170.180313,175.835724 170.292480,174.889938 170.470352,173.389908 
	C176.725876,176.462616 182.669098,179.381927 188.818665,182.571121 
z"/>
<path fill="#EFD2DC" opacity="1.000000" stroke="none" 
	d="
M200.491180,333.897034 
	C201.349548,332.771759 201.883469,331.828522 202.831757,330.153229 
	C202.831757,333.663788 202.831757,336.344177 202.831757,339.362396 
	C200.649338,337.862885 198.607742,336.460175 195.972672,334.649658 
	C197.678894,334.417542 198.922806,334.248291 200.491180,333.897034 
z"/>
<path fill="#A60F41" opacity="1.000000" stroke="none" 
	d="
M184.032166,351.127350 
	C184.096802,350.652313 184.161453,350.177246 184.239838,349.341339 
	C184.253571,348.980469 184.561813,348.977234 184.713715,349.003357 
	C185.340195,349.042480 185.814758,349.055542 186.648819,349.084229 
	C186.687195,352.003662 186.366074,354.907501 186.036346,358.216705 
	C185.570923,358.672913 185.114075,358.723724 184.308456,358.284424 
	C183.983826,355.571991 184.007996,353.349670 184.032166,351.127350 
z"/>
<path fill="#A60D3F" opacity="1.000000" stroke="none" 
	d="
M191.018219,325.738037 
	C190.825348,328.315704 190.630554,330.521484 190.435760,332.727295 
	C189.845581,332.635956 189.255402,332.544617 188.665222,332.453278 
	C189.254913,329.476685 189.844604,326.500061 190.626831,322.551544 
	C190.844147,324.122070 190.930206,324.744141 191.018219,325.738037 
z"/>
<path fill="#A60D3F" opacity="1.000000" stroke="none" 
	d="
M202.136566,357.722229 
	C201.807938,358.005920 201.641983,357.953125 201.215607,357.880249 
	C201.043518,356.155334 201.131851,354.450531 201.220169,352.745697 
	C201.710754,352.761322 202.201340,352.776978 202.691925,352.792603 
	C202.561035,354.323669 202.430145,355.854736 202.136566,357.722229 
z"/>
<path fill="#A60D3F" opacity="1.000000" stroke="none" 
	d="
M179.286346,329.054047 
	C179.036545,328.538330 179.124374,328.097076 179.080048,327.338135 
	C180.271774,327.747040 181.595657,328.473633 182.977921,329.584167 
	C183.036285,329.968109 182.937210,330.104950 182.937210,330.104950 
	C181.832809,329.779449 180.728409,329.453949 179.286346,329.054047 
z"/>
<path fill="#FBF4F6" opacity="1.000000" stroke="none" 
	d="
M180.117599,257.548035 
	C180.373260,257.271637 180.693359,257.149323 181.024460,257.078278 
	C181.067642,257.069000 181.167374,257.323364 181.240906,257.455597 
	C180.889084,257.543091 180.537277,257.630585 180.117599,257.548035 
z"/>
<path fill="#A60D3F" opacity="1.000000" stroke="none" 
	d="
M185.988419,331.015869 
	C185.137756,330.854065 184.287094,330.692291 183.186829,330.317719 
	C182.937210,330.104950 183.036285,329.968109 183.088745,329.899414 
	C184.060623,330.048615 184.980057,330.266541 185.949738,330.742462 
	C186.000000,331.000458 185.988419,331.015869 185.988419,331.015869 
z"/>
<path fill="#A60D3F" opacity="1.000000" stroke="none" 
	d="
M186.007538,330.994690 
	C186.015060,330.988922 186.296890,331.185272 186.296890,331.185272 
	C186.296890,331.185272 186.074677,331.176666 186.031555,331.096252 
	C185.988419,331.015869 186.000000,331.000458 186.007538,330.994690 
z"/>
<path fill="#A10035" opacity="1.000000" stroke="none" 
	d="
M183.656403,351.016357 
	C184.007996,353.349670 183.983826,355.571991 183.970169,358.207703 
	C181.202011,358.700012 178.412720,358.652802 175.647125,358.886414 
	C171.120468,359.268677 169.132126,357.500153 170.153168,352.469757 
	C174.165009,347.958374 178.164368,347.609283 183.656403,351.016357 
z"/>
</svg>